{
	"asset":{
		"generator":"Khronos glTF Blender I/O v3.5.30",
		"version":"2.0"
	},
	"scene":0,
	"scenes":[
		{
			"extras":{
				"s_output":"exporting...",
				"b_export":1,
				"export_path":"/Volumes/HFIAD/Pastaland/",
				"s_project_name":"Pastaland-v17",
				"b_renderer":0,
				"b_settings":1,
				"b_joystick":0,
				"b_show_env_sky":0,
				"b_cubemap_background":0,
				"b_cast_shadows":0,
				"b_physicallyCorrectLights":1,
				"b_player":0,
				"b_raycast":1,
				"b_colorManagement":1,
				"b_aa":1,
				"b_interactive":0
			},
			"name":"Scene",
			"nodes":[
				0
			]
		}
	],
	"nodes":[
		{
			"mesh":0,
			"name":"Fork",
			"rotation":[
				0.0781504288315773,
				-0.07873883098363876,
				-0.17772793769836426,
				0.9778065085411072
			],
			"scale":[
				2.1465518474578857,
				2.1465518474578857,
				2.1465518474578857
			]
		}
	],
	"animations":[
		{
			"channels":[
				{
					"sampler":0,
					"target":{
						"node":0,
						"path":"translation"
					}
				},
				{
					"sampler":1,
					"target":{
						"node":0,
						"path":"rotation"
					}
				},
				{
					"sampler":2,
					"target":{
						"node":0,
						"path":"scale"
					}
				}
			],
			"name":"Fork",
			"samplers":[
				{
					"input":6,
					"interpolation":"LINEAR",
					"output":7
				},
				{
					"input":6,
					"interpolation":"LINEAR",
					"output":8
				},
				{
					"input":6,
					"interpolation":"LINEAR",
					"output":9
				}
			]
		}
	],
	"materials":[
		{
			"doubleSided":true,
			"emissiveFactor":[
				0.2140372097492218,
				0.2140372097492218,
				0.2140372097492218
			],
			"name":"Material.002",
			"pbrMetallicRoughness":{
				"baseColorFactor":[
					0.800000011920929,
					0.800000011920929,
					0.800000011920929,
					1
				],
				"roughnessFactor":0
			}
		}
	],
	"meshes":[
		{
			"name":"Cube.012",
			"primitives":[
				{
					"attributes":{
						"COLOR_0":0,
						"POSITION":1,
						"TEXCOORD_0":2,
						"NORMAL":3,
						"TANGENT":4
					},
					"indices":5,
					"material":0
				}
			]
		}
	],
	"accessors":[
		{
			"bufferView":0,
			"componentType":5123,
			"count":13896,
			"normalized":true,
			"type":"VEC4"
		},
		{
			"bufferView":1,
			"componentType":5126,
			"count":13896,
			"max":[
				6.180753231048584,
				0.22973917424678802,
				0.6989789605140686
			],
			"min":[
				-3.114621162414551,
				-0.17503803968429565,
				-0.6987013816833496
			],
			"type":"VEC3"
		},
		{
			"bufferView":2,
			"componentType":5126,
			"count":13896,
			"type":"VEC2"
		},
		{
			"bufferView":3,
			"componentType":5126,
			"count":13896,
			"type":"VEC3"
		},
		{
			"bufferView":4,
			"componentType":5126,
			"count":13896,
			"type":"VEC4"
		},
		{
			"bufferView":5,
			"componentType":5123,
			"count":70656,
			"type":"SCALAR"
		},
		{
			"bufferView":6,
			"componentType":5126,
			"count":222,
			"max":[
				9.208333333333334
			],
			"min":[
				0
			],
			"type":"SCALAR"
		},
		{
			"bufferView":7,
			"componentType":5126,
			"count":222,
			"type":"VEC3"
		},
		{
			"bufferView":8,
			"componentType":5126,
			"count":222,
			"type":"VEC4"
		},
		{
			"bufferView":9,
			"componentType":5126,
			"count":222,
			"type":"VEC3"
		}
	],
	"bufferViews":[
		{
			"buffer":0,
			"byteLength":111168,
			"byteOffset":0,
			"target":34962
		},
		{
			"buffer":0,
			"byteLength":166752,
			"byteOffset":111168,
			"target":34962
		},
		{
			"buffer":0,
			"byteLength":111168,
			"byteOffset":277920,
			"target":34962
		},
		{
			"buffer":0,
			"byteLength":166752,
			"byteOffset":389088,
			"target":34962
		},
		{
			"buffer":0,
			"byteLength":222336,
			"byteOffset":555840,
			"target":34962
		},
		{
			"buffer":0,
			"byteLength":141312,
			"byteOffset":778176,
			"target":34963
		},
		{
			"buffer":0,
			"byteLength":888,
			"byteOffset":919488
		},
		{
			"buffer":0,
			"byteLength":2664,
			"byteOffset":920376
		},
		{
			"buffer":0,
			"byteLength":3552,
			"byteOffset":923040
		},
		{
			"buffer":0,
			"byteLength":2664,
			"byteOffset":926592
		}
	],
	"buffers":[
		{
			"byteLength":929256,
			"uri":"data:application/octet-stream;base64,"
		}
	]
}
