{
	"asset":{
		"generator":"Khronos glTF Blender I/O v3.5.30",
		"version":"2.0"
	},
	"extensionsUsed":[
		"KHR_materials_specular",
		"KHR_materials_ior"
	],
	"scene":0,
	"scenes":[
		{
			"extras":{
				"s_output":"exporting...",
				"b_export":1,
				"b_interactive":1,
				"b_settings":0,
				"b_renderer":0,
				"b_player":0,
				"export_path":"/Users/fazlifazliu/Downloads/",
				"s_project_name":"Pastaland V2"
			},
			"name":"Scene",
			"nodes":[
				0
			]
		}
	],
	"nodes":[
		{
			"mesh":0,
			"name":"Fusili.007"
		}
	],
	"materials":[
		{
			"doubleSided":true,
			"extensions":{
				"KHR_materials_specular":{
					"specularColorFactor":[
						0.474271529955476,
						0.474271529955476,
						0.474271529955476
					]
				},
				"KHR_materials_ior":{
					"ior":1.4500000476837158
				}
			},
			"name":"Pasta.001",
			"pbrMetallicRoughness":{
				"baseColorFactor":[
					0.9130933880805969,
					0.8069533705711365,
					0.15896107256412506,
					1
				],
				"metallicFactor":0,
				"roughnessFactor":0.699999988079071
			}
		}
	],
	"meshes":[
		{
			"name":"Cube.009",
			"primitives":[
				{
					"attributes":{
						"POSITION":0,
						"NORMAL":1
					},
					"indices":2,
					"material":0
				}
			]
		}
	],
	"accessors":[
		{
			"bufferView":0,
			"componentType":5126,
			"count":12162,
			"max":[
				0.14772441983222961,
				1.3450839519500732,
				0.14648136496543884
			],
			"min":[
				-0.15725502371788025,
				-1.1941879987716675,
				-0.15850849449634552
			],
			"type":"VEC3"
		},
		{
			"bufferView":1,
			"componentType":5126,
			"count":12162,
			"type":"VEC3"
		},
		{
			"bufferView":2,
			"componentType":5123,
			"count":72960,
			"type":"SCALAR"
		}
	],
	"bufferViews":[
		{
			"buffer":0,
			"byteLength":145944,
			"byteOffset":0,
			"target":34962
		},
		{
			"buffer":0,
			"byteLength":145944,
			"byteOffset":145944,
			"target":34962
		},
		{
			"buffer":0,
			"byteLength":145920,
			"byteOffset":291888,
			"target":34963
		}
	],
	"buffers":[
		{
			"byteLength":437808,
			"uri":"data:application/octet-stream;base64,"
		}
	]
}
