{
	"asset":{
		"generator":"Khronos glTF Blender I/O v3.5.30",
		"version":"2.0"
	},
	"extensionsUsed":[
		"KHR_materials_specular",
		"KHR_materials_ior"
	],
	"scene":0,
	"scenes":[
		{
			"extras":{
				"s_output":"exporting...",
				"b_export":1,
				"export_path":"/Volumes/HFIAD/Pastaland/",
				"s_project_name":"Pastaland-v15",
				"b_renderer":0,
				"b_settings":1,
				"b_joystick":0,
				"b_show_env_sky":1,
				"b_cubemap_background":0,
				"b_cast_shadows":1,
				"b_physicallyCorrectLights":1,
				"b_player":0,
				"b_raycast":1,
				"b_colorManagement":1,
				"b_aa":1,
				"b_interactive":0
			},
			"name":"Scene",
			"nodes":[
				0
			]
		}
	],
	"nodes":[
		{
			"mesh":0,
			"name":"Fusili.009",
			"rotation":[
				0.26057228446006775,
				-0.14567138254642487,
				-0.8185787200927734,
				0.4907247722148895
			],
			"scale":[
				2.003490686416626,
				2.003490686416626,
				2.003490924835205
			]
		}
	],
	"animations":[
		{
			"channels":[
				{
					"sampler":0,
					"target":{
						"node":0,
						"path":"translation"
					}
				},
				{
					"sampler":1,
					"target":{
						"node":0,
						"path":"rotation"
					}
				},
				{
					"sampler":2,
					"target":{
						"node":0,
						"path":"scale"
					}
				}
			],
			"name":"Fusili.009",
			"samplers":[
				{
					"input":3,
					"interpolation":"LINEAR",
					"output":4
				},
				{
					"input":3,
					"interpolation":"LINEAR",
					"output":5
				},
				{
					"input":3,
					"interpolation":"LINEAR",
					"output":6
				}
			]
		}
	],
	"materials":[
		{
			"doubleSided":true,
			"extensions":{
				"KHR_materials_specular":{
					"specularColorFactor":[
						0.474271529955476,
						0.474271529955476,
						0.474271529955476
					]
				},
				"KHR_materials_ior":{
					"ior":1.4500000476837158
				}
			},
			"name":"Pasta-Material-new",
			"pbrMetallicRoughness":{
				"baseColorFactor":[
					0.9130933880805969,
					0.8069533705711365,
					0.15896107256412506,
					1
				],
				"metallicFactor":0
			}
		}
	],
	"meshes":[
		{
			"name":"Cube.010",
			"primitives":[
				{
					"attributes":{
						"POSITION":0,
						"NORMAL":1
					},
					"indices":2,
					"material":0
				}
			]
		}
	],
	"accessors":[
		{
			"bufferView":0,
			"componentType":5126,
			"count":339,
			"max":[
				0.19610154628753662,
				1.513105869293213,
				0.12693409621715546
			],
			"min":[
				-0.21263593435287476,
				-1.4872311353683472,
				-0.15563568472862244
			],
			"type":"VEC3"
		},
		{
			"bufferView":1,
			"componentType":5126,
			"count":339,
			"type":"VEC3"
		},
		{
			"bufferView":2,
			"componentType":5123,
			"count":1464,
			"type":"SCALAR"
		},
		{
			"bufferView":3,
			"componentType":5126,
			"count":222,
			"max":[
				9.208333333333334
			],
			"min":[
				0
			],
			"type":"SCALAR"
		},
		{
			"bufferView":4,
			"componentType":5126,
			"count":222,
			"type":"VEC3"
		},
		{
			"bufferView":5,
			"componentType":5126,
			"count":222,
			"type":"VEC4"
		},
		{
			"bufferView":6,
			"componentType":5126,
			"count":222,
			"type":"VEC3"
		}
	],
	"bufferViews":[
		{
			"buffer":0,
			"byteLength":4068,
			"byteOffset":0,
			"target":34962
		},
		{
			"buffer":0,
			"byteLength":4068,
			"byteOffset":4068,
			"target":34962
		},
		{
			"buffer":0,
			"byteLength":2928,
			"byteOffset":8136,
			"target":34963
		},
		{
			"buffer":0,
			"byteLength":888,
			"byteOffset":11064
		},
		{
			"buffer":0,
			"byteLength":2664,
			"byteOffset":11952
		},
		{
			"buffer":0,
			"byteLength":3552,
			"byteOffset":14616
		},
		{
			"buffer":0,
			"byteLength":2664,
			"byteOffset":18168
		}
	],
	"buffers":[
		{
			"byteLength":20832,
			"uri":"data:application/octet-stream;base64,"
		}
	]
}
