{
	"asset":{
		"generator":"Khronos glTF Blender I/O v3.5.30",
		"version":"2.0"
	},
	"extensionsUsed":[
		"KHR_materials_specular",
		"KHR_materials_ior"
	],
	"scene":0,
	"scenes":[
		{
			"extras":{
				"s_output":"exporting...",
				"b_export":1,
				"export_path":"/Volumes/HFIAD/Pastaland/",
				"s_project_name":"Pastaland-v9",
				"b_renderer":1,
				"b_settings":1,
				"b_joystick":1,
				"b_show_env_sky":1,
				"b_cubemap_background":1,
				"b_cast_shadows":1,
				"b_physicallyCorrectLights":1,
				"b_player":0,
				"b_raycast":1,
				"b_colorManagement":1,
				"b_aa":1
			},
			"name":"Scene",
			"nodes":[
				0
			]
		}
	],
	"nodes":[
		{
			"mesh":0,
			"name":"Fusili.001",
			"rotation":[
				0,
				-0.01109866239130497,
				0,
				0.999938428401947
			],
			"scale":[
				2.003490686416626,
				2.003490686416626,
				2.003490686416626
			]
		}
	],
	"animations":[
		{
			"channels":[
				{
					"sampler":0,
					"target":{
						"node":0,
						"path":"translation"
					}
				},
				{
					"sampler":1,
					"target":{
						"node":0,
						"path":"rotation"
					}
				},
				{
					"sampler":2,
					"target":{
						"node":0,
						"path":"scale"
					}
				}
			],
			"name":"Fusili.001",
			"samplers":[
				{
					"input":3,
					"interpolation":"LINEAR",
					"output":4
				},
				{
					"input":3,
					"interpolation":"LINEAR",
					"output":5
				},
				{
					"input":3,
					"interpolation":"LINEAR",
					"output":6
				}
			]
		}
	],
	"materials":[
		{
			"doubleSided":true,
			"extensions":{
				"KHR_materials_specular":{
					"specularColorFactor":[
						0.474271529955476,
						0.474271529955476,
						0.474271529955476
					]
				},
				"KHR_materials_ior":{
					"ior":1.4500000476837158
				}
			},
			"name":"Pasta-Material-new",
			"pbrMetallicRoughness":{
				"baseColorFactor":[
					0.9130933880805969,
					0.8069533705711365,
					0.15896107256412506,
					1
				],
				"metallicFactor":0
			}
		}
	],
	"meshes":[
		{
			"name":"Cube.005",
			"primitives":[
				{
					"attributes":{
						"POSITION":0,
						"NORMAL":1
					},
					"indices":2,
					"material":0
				}
			]
		}
	],
	"accessors":[
		{
			"bufferView":0,
			"componentType":5126,
			"count":474,
			"max":[
				0.1010233610868454,
				0.7952114939689636,
				0.0771697461605072
			],
			"min":[
				-0.09040430933237076,
				-0.7952091097831726,
				-0.08140940219163895
			],
			"type":"VEC3"
		},
		{
			"bufferView":1,
			"componentType":5126,
			"count":474,
			"type":"VEC3"
		},
		{
			"bufferView":2,
			"componentType":5123,
			"count":2832,
			"type":"SCALAR"
		},
		{
			"bufferView":3,
			"componentType":5126,
			"count":221,
			"max":[
				9.208333333333334
			],
			"min":[
				0.041666666666666664
			],
			"type":"SCALAR"
		},
		{
			"bufferView":4,
			"componentType":5126,
			"count":221,
			"type":"VEC3"
		},
		{
			"bufferView":5,
			"componentType":5126,
			"count":221,
			"type":"VEC4"
		},
		{
			"bufferView":6,
			"componentType":5126,
			"count":221,
			"type":"VEC3"
		}
	],
	"bufferViews":[
		{
			"buffer":0,
			"byteLength":5688,
			"byteOffset":0,
			"target":34962
		},
		{
			"buffer":0,
			"byteLength":5688,
			"byteOffset":5688,
			"target":34962
		},
		{
			"buffer":0,
			"byteLength":5664,
			"byteOffset":11376,
			"target":34963
		},
		{
			"buffer":0,
			"byteLength":884,
			"byteOffset":17040
		},
		{
			"buffer":0,
			"byteLength":2652,
			"byteOffset":17924
		},
		{
			"buffer":0,
			"byteLength":3536,
			"byteOffset":20576
		},
		{
			"buffer":0,
			"byteLength":2652,
			"byteOffset":24112
		}
	],
	"buffers":[
		{
			"byteLength":26764,
			"uri":"data:application/octet-stream;base64,"
		}
	]
}
