{
	"asset":{
		"generator":"Khronos glTF Blender I/O v3.5.30",
		"version":"2.0"
	},
	"extensionsUsed":[
		"KHR_materials_specular",
		"KHR_materials_ior"
	],
	"scene":0,
	"scenes":[
		{
			"extras":{
				"s_output":"exporting...",
				"b_export":1,
				"b_interactive":1,
				"b_settings":0,
				"b_renderer":0,
				"b_player":1,
				"export_path":"/Users/fazlifazliu/Downloads/"
			},
			"name":"Scene",
			"nodes":[
				0
			]
		}
	],
	"nodes":[
		{
			"mesh":0,
			"name":"Fusili.001"
		}
	],
	"materials":[
		{
			"doubleSided":true,
			"extensions":{
				"KHR_materials_specular":{
					"specularColorFactor":[
						0.474271529955476,
						0.474271529955476,
						0.474271529955476
					]
				},
				"KHR_materials_ior":{
					"ior":1.4500000476837158
				}
			},
			"name":"Pasta.001",
			"pbrMetallicRoughness":{
				"baseColorFactor":[
					0.9130933880805969,
					0.8069533705711365,
					0.15896107256412506,
					1
				],
				"metallicFactor":0,
				"roughnessFactor":0.699999988079071
			}
		}
	],
	"meshes":[
		{
			"name":"Cube.005",
			"primitives":[
				{
					"attributes":{
						"POSITION":0,
						"NORMAL":1
					},
					"indices":2,
					"material":0
				}
			]
		}
	],
	"accessors":[
		{
			"bufferView":0,
			"componentType":5126,
			"count":474,
			"max":[
				0.101023368537426,
				0.7952117919921875,
				0.0771697461605072
			],
			"min":[
				-0.09040430188179016,
				-0.7952088117599487,
				-0.08140940219163895
			],
			"type":"VEC3"
		},
		{
			"bufferView":1,
			"componentType":5126,
			"count":474,
			"type":"VEC3"
		},
		{
			"bufferView":2,
			"componentType":5123,
			"count":2832,
			"type":"SCALAR"
		}
	],
	"bufferViews":[
		{
			"buffer":0,
			"byteLength":5688,
			"byteOffset":0,
			"target":34962
		},
		{
			"buffer":0,
			"byteLength":5688,
			"byteOffset":5688,
			"target":34962
		},
		{
			"buffer":0,
			"byteLength":5664,
			"byteOffset":11376,
			"target":34963
		}
	],
	"buffers":[
		{
			"byteLength":17040,
			"uri":"data:application/octet-stream;base64,"
		}
	]
}
