{
	"asset":{
		"generator":"Khronos glTF Blender I/O v3.5.30",
		"version":"2.0"
	},
	"scene":0,
	"scenes":[
		{
			"extras":{
				"b_settings":1,
				"b_cubemap":1,
				"b_vr_controllers":1,
				"b_show_env_sky":1,
				"b_renderer":1,
				"b_aa":0,
				"b_colorManagement":0,
				"b_physicallyCorrectLights":0,
				"b_player":1,
				"b_raycast":0,
				"f_raycast_length":4.0,
				"f_raycast_interval":2000.0,
				"b_interactive":0,
				"b_export":1,
				"s_project_name":"Pastaland-v11",
				"export_path":"/Volumes/2793-Blender-3D/HFIAD/Pastaland/",
				"s_output":"exporting...",
				"b_cast_shadows":1,
				"b_cubemap_background":1
			},
			"name":"Scene",
			"nodes":[
				0
			]
		}
	],
	"nodes":[
		{
			"mesh":0,
			"name":"Muschel",
			"rotation":[
				0.7071068286895752,
				0,
				0,
				0.7071068286895752
			]
		}
	],
	"materials":[
		{
			"alphaMode":"BLEND",
			"doubleSided":true,
			"name":"Pasta-Material-new.001",
			"pbrMetallicRoughness":{
				"metallicFactor":0
			}
		}
	],
	"meshes":[
		{
			"name":"Muschel",
			"primitives":[
				{
					"attributes":{
						"POSITION":0,
						"TEXCOORD_0":1,
						"NORMAL":2,
						"TANGENT":3
					},
					"indices":4,
					"material":0
				}
			]
		}
	],
	"accessors":[
		{
			"bufferView":0,
			"componentType":5126,
			"count":29108,
			"max":[
				1.5844268798828125,
				0.6803191304206848,
				3.409360408782959
			],
			"min":[
				-1.1318721771240234,
				-2.1852288246154785,
				-0.8195015788078308
			],
			"type":"VEC3"
		},
		{
			"bufferView":1,
			"componentType":5126,
			"count":29108,
			"type":"VEC2"
		},
		{
			"bufferView":2,
			"componentType":5126,
			"count":29108,
			"type":"VEC3"
		},
		{
			"bufferView":3,
			"componentType":5126,
			"count":29108,
			"type":"VEC4"
		},
		{
			"bufferView":4,
			"componentType":5123,
			"count":153600,
			"type":"SCALAR"
		}
	],
	"bufferViews":[
		{
			"buffer":0,
			"byteLength":349296,
			"byteOffset":0,
			"target":34962
		},
		{
			"buffer":0,
			"byteLength":232864,
			"byteOffset":349296,
			"target":34962
		},
		{
			"buffer":0,
			"byteLength":349296,
			"byteOffset":582160,
			"target":34962
		},
		{
			"buffer":0,
			"byteLength":465728,
			"byteOffset":931456,
			"target":34962
		},
		{
			"buffer":0,
			"byteLength":307200,
			"byteOffset":1397184,
			"target":34963
		}
	],
	"buffers":[
		{
			"byteLength":1704384,
			"uri":"data:application/octet-stream;base64,"
		}
	]
}
