{
	"asset":{
		"generator":"Khronos glTF Blender I/O v3.5.30",
		"version":"2.0"
	},
	"extensionsUsed":[
		"KHR_materials_specular",
		"KHR_materials_ior"
	],
	"scene":0,
	"scenes":[
		{
			"extras":{
				"s_output":"exporting...",
				"b_export":1,
				"export_path":"/Volumes/HFIAD/Pastaland/",
				"s_project_name":"Pastaland-v15",
				"b_renderer":0,
				"b_settings":1,
				"b_joystick":0,
				"b_show_env_sky":1,
				"b_cubemap_background":0,
				"b_cast_shadows":1,
				"b_physicallyCorrectLights":1,
				"b_player":0,
				"b_raycast":1,
				"b_colorManagement":1,
				"b_aa":1,
				"b_interactive":0
			},
			"name":"Scene",
			"nodes":[
				0
			]
		}
	],
	"nodes":[
		{
			"mesh":0,
			"name":"Muschel.001",
			"rotation":[
				0.5951068997383118,
				0.7411879301071167,
				0.18900032341480255,
				0.24650974571704865
			],
			"scale":[
				0.4383494555950165,
				0.4383493959903717,
				0.4383493661880493
			]
		}
	],
	"animations":[
		{
			"channels":[
				{
					"sampler":0,
					"target":{
						"node":0,
						"path":"translation"
					}
				},
				{
					"sampler":1,
					"target":{
						"node":0,
						"path":"rotation"
					}
				},
				{
					"sampler":2,
					"target":{
						"node":0,
						"path":"scale"
					}
				}
			],
			"name":"Muschel.001",
			"samplers":[
				{
					"input":5,
					"interpolation":"LINEAR",
					"output":6
				},
				{
					"input":5,
					"interpolation":"LINEAR",
					"output":7
				},
				{
					"input":5,
					"interpolation":"LINEAR",
					"output":8
				}
			]
		}
	],
	"materials":[
		{
			"doubleSided":true,
			"extensions":{
				"KHR_materials_specular":{
					"specularColorFactor":[
						0.474271529955476,
						0.474271529955476,
						0.474271529955476
					]
				},
				"KHR_materials_ior":{
					"ior":1.4500000476837158
				}
			},
			"name":"Pasta-Material-new",
			"pbrMetallicRoughness":{
				"baseColorFactor":[
					0.9130933880805969,
					0.8069533705711365,
					0.15896107256412506,
					1
				],
				"metallicFactor":0
			}
		}
	],
	"meshes":[
		{
			"name":"Circle.002",
			"primitives":[
				{
					"attributes":{
						"POSITION":0,
						"TEXCOORD_0":1,
						"NORMAL":2,
						"TANGENT":3
					},
					"indices":4,
					"material":0
				}
			]
		}
	],
	"accessors":[
		{
			"bufferView":0,
			"componentType":5126,
			"count":29108,
			"max":[
				4.017929553985596,
				1.5388063192367554,
				1.444138526916504
			],
			"min":[
				-0.9276788234710693,
				-1.3513422012329102,
				-1.6546080112457275
			],
			"type":"VEC3"
		},
		{
			"bufferView":1,
			"componentType":5126,
			"count":29108,
			"type":"VEC2"
		},
		{
			"bufferView":2,
			"componentType":5126,
			"count":29108,
			"type":"VEC3"
		},
		{
			"bufferView":3,
			"componentType":5126,
			"count":29108,
			"type":"VEC4"
		},
		{
			"bufferView":4,
			"componentType":5123,
			"count":153600,
			"type":"SCALAR"
		},
		{
			"bufferView":5,
			"componentType":5126,
			"count":222,
			"max":[
				9.208333333333334
			],
			"min":[
				0
			],
			"type":"SCALAR"
		},
		{
			"bufferView":6,
			"componentType":5126,
			"count":222,
			"type":"VEC3"
		},
		{
			"bufferView":7,
			"componentType":5126,
			"count":222,
			"type":"VEC4"
		},
		{
			"bufferView":8,
			"componentType":5126,
			"count":222,
			"type":"VEC3"
		}
	],
	"bufferViews":[
		{
			"buffer":0,
			"byteLength":349296,
			"byteOffset":0,
			"target":34962
		},
		{
			"buffer":0,
			"byteLength":232864,
			"byteOffset":349296,
			"target":34962
		},
		{
			"buffer":0,
			"byteLength":349296,
			"byteOffset":582160,
			"target":34962
		},
		{
			"buffer":0,
			"byteLength":465728,
			"byteOffset":931456,
			"target":34962
		},
		{
			"buffer":0,
			"byteLength":307200,
			"byteOffset":1397184,
			"target":34963
		},
		{
			"buffer":0,
			"byteLength":888,
			"byteOffset":1704384
		},
		{
			"buffer":0,
			"byteLength":2664,
			"byteOffset":1705272
		},
		{
			"buffer":0,
			"byteLength":3552,
			"byteOffset":1707936
		},
		{
			"buffer":0,
			"byteLength":2664,
			"byteOffset":1711488
		}
	],
	"buffers":[
		{
			"byteLength":1714152,
			"uri":"data:application/octet-stream;base64,"
		}
	]
}
