{
	"asset":{
		"generator":"Khronos glTF Blender I/O v3.5.30",
		"version":"2.0"
	},
	"extensionsUsed":[
		"KHR_materials_specular",
		"KHR_materials_ior"
	],
	"scene":0,
	"scenes":[
		{
			"extras":{
				"s_output":"exporting...",
				"b_export":1,
				"b_interactive":1,
				"b_settings":0,
				"b_renderer":0,
				"b_player":1,
				"export_path":"/Users/fazlifazliu/Downloads/"
			},
			"name":"Scene",
			"nodes":[
				0
			]
		}
	],
	"nodes":[
		{
			"mesh":0,
			"name":"Muschel",
			"rotation":[
				0.22966399788856506,
				-0.030292809009552002,
				-0.6849714517593384,
				0.6907610893249512
			],
			"scale":[
				0.4589266777038574,
				0.45892655849456787,
				0.45892658829689026
			]
		}
	],
	"materials":[
		{
			"doubleSided":true,
			"extensions":{
				"KHR_materials_specular":{
					"specularColorFactor":[
						0.474271529955476,
						0.474271529955476,
						0.474271529955476
					]
				},
				"KHR_materials_ior":{
					"ior":1.4500000476837158
				}
			},
			"name":"Pasta",
			"pbrMetallicRoughness":{
				"baseColorFactor":[
					0.9130929708480835,
					0.8069533705711365,
					0.15896107256412506,
					1
				],
				"metallicFactor":0,
				"roughnessFactor":0.699999988079071
			}
		}
	],
	"meshes":[
		{
			"name":"Circle.001",
			"primitives":[
				{
					"attributes":{
						"POSITION":0,
						"TEXCOORD_0":1,
						"NORMAL":2,
						"TANGENT":3
					},
					"indices":4,
					"material":0
				}
			]
		}
	],
	"accessors":[
		{
			"bufferView":0,
			"componentType":5126,
			"count":29108,
			"max":[
				4.017928123474121,
				1.5388063192367554,
				1.444136619567871
			],
			"min":[
				-0.927680253982544,
				-1.3513422012329102,
				-1.6546099185943604
			],
			"type":"VEC3"
		},
		{
			"bufferView":1,
			"componentType":5126,
			"count":29108,
			"type":"VEC2"
		},
		{
			"bufferView":2,
			"componentType":5126,
			"count":29108,
			"type":"VEC3"
		},
		{
			"bufferView":3,
			"componentType":5126,
			"count":29108,
			"type":"VEC4"
		},
		{
			"bufferView":4,
			"componentType":5123,
			"count":153600,
			"type":"SCALAR"
		}
	],
	"bufferViews":[
		{
			"buffer":0,
			"byteLength":349296,
			"byteOffset":0,
			"target":34962
		},
		{
			"buffer":0,
			"byteLength":232864,
			"byteOffset":349296,
			"target":34962
		},
		{
			"buffer":0,
			"byteLength":349296,
			"byteOffset":582160,
			"target":34962
		},
		{
			"buffer":0,
			"byteLength":465728,
			"byteOffset":931456,
			"target":34962
		},
		{
			"buffer":0,
			"byteLength":307200,
			"byteOffset":1397184,
			"target":34963
		}
	],
	"buffers":[
		{
			"byteLength":1704384,
			"uri":"data:application/octet-stream;base64,"
		}
	]
}
