{
	"asset":{
		"generator":"Khronos glTF Blender I/O v3.5.30",
		"version":"2.0"
	},
	"extensionsUsed":[
		"KHR_materials_specular",
		"KHR_materials_ior"
	],
	"scene":0,
	"scenes":[
		{
			"extras":{
				"s_output":"exporting...",
				"b_export":1,
				"export_path":"/Volumes/HFIAD/Pastaland/",
				"s_project_name":"aframe-prj"
			},
			"name":"Scene",
			"nodes":[
				0
			]
		}
	],
	"nodes":[
		{
			"mesh":0,
			"name":"Muschel",
			"rotation":[
				0.2372521460056305,
				-0.03795738145709038,
				-0.6823803186416626,
				0.6903823018074036
			],
			"scale":[
				0.9194554090499878,
				0.9194551706314087,
				0.9194551706314087
			]
		}
	],
	"animations":[
		{
			"channels":[
				{
					"sampler":0,
					"target":{
						"node":0,
						"path":"translation"
					}
				},
				{
					"sampler":1,
					"target":{
						"node":0,
						"path":"rotation"
					}
				},
				{
					"sampler":2,
					"target":{
						"node":0,
						"path":"scale"
					}
				}
			],
			"name":"Muschel",
			"samplers":[
				{
					"input":5,
					"interpolation":"LINEAR",
					"output":6
				},
				{
					"input":5,
					"interpolation":"LINEAR",
					"output":7
				},
				{
					"input":5,
					"interpolation":"LINEAR",
					"output":8
				}
			]
		}
	],
	"materials":[
		{
			"doubleSided":true,
			"extensions":{
				"KHR_materials_specular":{
					"specularColorFactor":[
						0.474271529955476,
						0.474271529955476,
						0.474271529955476
					]
				},
				"KHR_materials_ior":{
					"ior":1.4500000476837158
				}
			},
			"name":"Pasta-Material-new",
			"pbrMetallicRoughness":{
				"baseColorFactor":[
					0.9130933880805969,
					0.8069533705711365,
					0.15896107256412506,
					1
				],
				"metallicFactor":0
			}
		}
	],
	"meshes":[
		{
			"name":"Circle.001",
			"primitives":[
				{
					"attributes":{
						"POSITION":0,
						"TEXCOORD_0":1,
						"NORMAL":2,
						"TANGENT":3
					},
					"indices":4,
					"material":0
				}
			]
		}
	],
	"accessors":[
		{
			"bufferView":0,
			"componentType":5126,
			"count":29108,
			"max":[
				4.017929553985596,
				1.5388063192367554,
				1.444138526916504
			],
			"min":[
				-0.9276788234710693,
				-1.3513422012329102,
				-1.6546080112457275
			],
			"type":"VEC3"
		},
		{
			"bufferView":1,
			"componentType":5126,
			"count":29108,
			"type":"VEC2"
		},
		{
			"bufferView":2,
			"componentType":5126,
			"count":29108,
			"type":"VEC3"
		},
		{
			"bufferView":3,
			"componentType":5126,
			"count":29108,
			"type":"VEC4"
		},
		{
			"bufferView":4,
			"componentType":5123,
			"count":153600,
			"type":"SCALAR"
		},
		{
			"bufferView":5,
			"componentType":5126,
			"count":221,
			"max":[
				9.208333333333334
			],
			"min":[
				0.041666666666666664
			],
			"type":"SCALAR"
		},
		{
			"bufferView":6,
			"componentType":5126,
			"count":221,
			"type":"VEC3"
		},
		{
			"bufferView":7,
			"componentType":5126,
			"count":221,
			"type":"VEC4"
		},
		{
			"bufferView":8,
			"componentType":5126,
			"count":221,
			"type":"VEC3"
		}
	],
	"bufferViews":[
		{
			"buffer":0,
			"byteLength":349296,
			"byteOffset":0,
			"target":34962
		},
		{
			"buffer":0,
			"byteLength":232864,
			"byteOffset":349296,
			"target":34962
		},
		{
			"buffer":0,
			"byteLength":349296,
			"byteOffset":582160,
			"target":34962
		},
		{
			"buffer":0,
			"byteLength":465728,
			"byteOffset":931456,
			"target":34962
		},
		{
			"buffer":0,
			"byteLength":307200,
			"byteOffset":1397184,
			"target":34963
		},
		{
			"buffer":0,
			"byteLength":884,
			"byteOffset":1704384
		},
		{
			"buffer":0,
			"byteLength":2652,
			"byteOffset":1705268
		},
		{
			"buffer":0,
			"byteLength":3536,
			"byteOffset":1707920
		},
		{
			"buffer":0,
			"byteLength":2652,
			"byteOffset":1711456
		}
	],
	"buffers":[
		{
			"byteLength":1714108,
			"uri":"data:application/octet-stream;base64,"
		}
	]
}
