{
	"asset":{
		"generator":"Khronos glTF Blender I/O v3.5.30",
		"version":"2.0"
	},
	"extensionsUsed":[
		"KHR_materials_specular",
		"KHR_materials_ior"
	],
	"scene":0,
	"scenes":[
		{
			"extras":{
				"s_output":"exporting...",
				"b_export":1,
				"export_path":"/Volumes/HFIAD/Pastaland/",
				"s_project_name":"Pastaland-v9",
				"b_renderer":1,
				"b_settings":1,
				"b_joystick":1,
				"b_show_env_sky":1,
				"b_cubemap_background":1,
				"b_cast_shadows":1,
				"b_physicallyCorrectLights":1,
				"b_player":0,
				"b_raycast":1,
				"b_colorManagement":1,
				"b_aa":1
			},
			"name":"Scene",
			"nodes":[
				0
			]
		}
	],
	"nodes":[
		{
			"mesh":0,
			"name":"Penne",
			"rotation":[
				-0.7629249095916748,
				-0.4593733847141266,
				-0.38899245858192444,
				0.2358105182647705
			],
			"scale":[
				0.3724296987056732,
				0.9292835593223572,
				0.37242987751960754
			],
			"translation":[
				-0.3981553912162781,
				8.224335670471191,
				5.880474090576172
			]
		}
	],
	"animations":[
		{
			"channels":[
				{
					"sampler":0,
					"target":{
						"node":0,
						"path":"translation"
					}
				},
				{
					"sampler":1,
					"target":{
						"node":0,
						"path":"rotation"
					}
				},
				{
					"sampler":2,
					"target":{
						"node":0,
						"path":"scale"
					}
				}
			],
			"name":"Penne|Penne|PenneAction",
			"samplers":[
				{
					"input":4,
					"interpolation":"LINEAR",
					"output":5
				},
				{
					"input":4,
					"interpolation":"LINEAR",
					"output":6
				},
				{
					"input":4,
					"interpolation":"LINEAR",
					"output":7
				}
			]
		}
	],
	"materials":[
		{
			"doubleSided":true,
			"extensions":{
				"KHR_materials_specular":{
					"specularColorFactor":[
						0.474271529955476,
						0.474271529955476,
						0.474271529955476
					]
				},
				"KHR_materials_ior":{
					"ior":1.4500000476837158
				}
			},
			"name":"Pasta-Material-new",
			"pbrMetallicRoughness":{
				"baseColorFactor":[
					0.9130933880805969,
					0.8069533705711365,
					0.15896107256412506,
					1
				],
				"metallicFactor":0
			}
		}
	],
	"meshes":[
		{
			"name":"Cylinder.005",
			"primitives":[
				{
					"attributes":{
						"POSITION":0,
						"TEXCOORD_0":1,
						"NORMAL":2
					},
					"indices":3,
					"material":0
				}
			]
		}
	],
	"accessors":[
		{
			"bufferView":0,
			"componentType":5126,
			"count":2160,
			"max":[
				1.1509534120559692,
				1.9844805002212524,
				1.1509534120559692
			],
			"min":[
				-1.1509534120559692,
				-1.8871926069259644,
				-1.1509534120559692
			],
			"type":"VEC3"
		},
		{
			"bufferView":1,
			"componentType":5126,
			"count":2160,
			"type":"VEC2"
		},
		{
			"bufferView":2,
			"componentType":5126,
			"count":2160,
			"type":"VEC3"
		},
		{
			"bufferView":3,
			"componentType":5123,
			"count":4320,
			"type":"SCALAR"
		},
		{
			"bufferView":4,
			"componentType":5126,
			"count":31,
			"max":[
				1.2916666666666667
			],
			"min":[
				0.041666666666666664
			],
			"type":"SCALAR"
		},
		{
			"bufferView":5,
			"componentType":5126,
			"count":31,
			"type":"VEC3"
		},
		{
			"bufferView":6,
			"componentType":5126,
			"count":31,
			"type":"VEC4"
		},
		{
			"bufferView":7,
			"componentType":5126,
			"count":31,
			"type":"VEC3"
		}
	],
	"bufferViews":[
		{
			"buffer":0,
			"byteLength":25920,
			"byteOffset":0,
			"target":34962
		},
		{
			"buffer":0,
			"byteLength":17280,
			"byteOffset":25920,
			"target":34962
		},
		{
			"buffer":0,
			"byteLength":25920,
			"byteOffset":43200,
			"target":34962
		},
		{
			"buffer":0,
			"byteLength":8640,
			"byteOffset":69120,
			"target":34963
		},
		{
			"buffer":0,
			"byteLength":124,
			"byteOffset":77760
		},
		{
			"buffer":0,
			"byteLength":372,
			"byteOffset":77884
		},
		{
			"buffer":0,
			"byteLength":496,
			"byteOffset":78256
		},
		{
			"buffer":0,
			"byteLength":372,
			"byteOffset":78752
		}
	],
	"buffers":[
		{
			"byteLength":79124,
			"uri":"data:application/octet-stream;base64,"
		}
	]
}
