{
	"asset":{
		"generator":"Khronos glTF Blender I/O v3.5.30",
		"version":"2.0"
	},
	"extensionsUsed":[
		"KHR_materials_specular",
		"KHR_materials_ior"
	],
	"scene":0,
	"scenes":[
		{
			"extras":{
				"b_settings":1,
				"b_cubemap":1,
				"b_vr_controllers":1,
				"b_show_env_sky":0,
				"b_renderer":1,
				"b_aa":0,
				"b_colorManagement":0,
				"b_physicallyCorrectLights":0,
				"b_player":1,
				"b_raycast":0,
				"f_raycast_length":4.0,
				"f_raycast_interval":2000.0,
				"b_interactive":0,
				"b_export":1,
				"s_project_name":"Pastaland-v14",
				"export_path":"/Volumes/2793-Blender-3D/HFIAD/Pastaland/",
				"s_output":"exporting...",
				"b_cast_shadows":1,
				"b_cubemap_background":1,
				"b_joystick":1
			},
			"name":"Scene",
			"nodes":[
				0
			]
		}
	],
	"nodes":[
		{
			"mesh":0,
			"name":"Plane",
			"rotation":[
				0.7071068286895752,
				0,
				0,
				0.7071068286895752
			]
		}
	],
	"materials":[
		{
			"doubleSided":true,
			"extensions":{
				"KHR_materials_specular":{
					"specularColorFactor":[
						0.474271529955476,
						0.474271529955476,
						0.474271529955476
					]
				},
				"KHR_materials_ior":{
					"ior":1.4500000476837158
				}
			},
			"name":"Pasta",
			"pbrMetallicRoughness":{
				"baseColorFactor":[
					0.9130929708480835,
					0.8069530129432678,
					0.1589609980583191,
					1
				],
				"metallicFactor":0,
				"roughnessFactor":0.699999988079071
			}
		}
	],
	"meshes":[
		{
			"name":"Plane",
			"primitives":[
				{
					"attributes":{
						"POSITION":0,
						"TEXCOORD_0":1,
						"NORMAL":2,
						"TANGENT":3
					},
					"indices":4,
					"material":0
				}
			]
		}
	],
	"accessors":[
		{
			"bufferView":0,
			"componentType":5126,
			"count":40,
			"max":[
				25.804866790771484,
				25.828834533691406,
				0
			],
			"min":[
				-25.804866790771484,
				-25.780899047851562,
				0
			],
			"type":"VEC3"
		},
		{
			"bufferView":1,
			"componentType":5126,
			"count":40,
			"type":"VEC2"
		},
		{
			"bufferView":2,
			"componentType":5126,
			"count":40,
			"type":"VEC3"
		},
		{
			"bufferView":3,
			"componentType":5126,
			"count":40,
			"type":"VEC4"
		},
		{
			"bufferView":4,
			"componentType":5123,
			"count":114,
			"type":"SCALAR"
		}
	],
	"bufferViews":[
		{
			"buffer":0,
			"byteLength":480,
			"byteOffset":0,
			"target":34962
		},
		{
			"buffer":0,
			"byteLength":320,
			"byteOffset":480,
			"target":34962
		},
		{
			"buffer":0,
			"byteLength":480,
			"byteOffset":800,
			"target":34962
		},
		{
			"buffer":0,
			"byteLength":640,
			"byteOffset":1280,
			"target":34962
		},
		{
			"buffer":0,
			"byteLength":228,
			"byteOffset":1920,
			"target":34963
		}
	],
	"buffers":[
		{
			"byteLength":2148,
			"uri":"data:application/octet-stream;base64,"
		}
	]
}
