{
	"asset":{
		"generator":"Khronos glTF Blender I/O v3.5.30",
		"version":"2.0"
	},
	"extensionsUsed":[
		"KHR_materials_specular",
		"KHR_materials_ior"
	],
	"scene":0,
	"scenes":[
		{
			"extras":{
				"s_output":"exporting...",
				"b_export":1,
				"export_path":"/Volumes/HFIAD/Pastaland/",
				"s_project_name":"Pastaland-v15",
				"b_renderer":0,
				"b_settings":1,
				"b_joystick":0,
				"b_show_env_sky":1,
				"b_cubemap_background":0,
				"b_cast_shadows":1,
				"b_physicallyCorrectLights":1,
				"b_player":0,
				"b_raycast":1,
				"b_colorManagement":1,
				"b_aa":1,
				"b_interactive":0
			},
			"name":"Scene",
			"nodes":[
				0
			]
		}
	],
	"nodes":[
		{
			"mesh":0,
			"name":"Plane.001",
			"rotation":[
				0.4475286602973938,
				0.8281940817832947,
				0.29650992155075073,
				0.16091784834861755
			],
			"scale":[
				1.7018773555755615,
				1.7018780708312988,
				1.701878547668457
			]
		}
	],
	"animations":[
		{
			"channels":[
				{
					"sampler":0,
					"target":{
						"node":0,
						"path":"translation"
					}
				},
				{
					"sampler":1,
					"target":{
						"node":0,
						"path":"rotation"
					}
				},
				{
					"sampler":2,
					"target":{
						"node":0,
						"path":"scale"
					}
				}
			],
			"name":"Plane.001",
			"samplers":[
				{
					"input":5,
					"interpolation":"LINEAR",
					"output":6
				},
				{
					"input":5,
					"interpolation":"LINEAR",
					"output":7
				},
				{
					"input":5,
					"interpolation":"LINEAR",
					"output":8
				}
			]
		}
	],
	"materials":[
		{
			"doubleSided":true,
			"extensions":{
				"KHR_materials_specular":{
					"specularColorFactor":[
						0.474271529955476,
						0.474271529955476,
						0.474271529955476
					]
				},
				"KHR_materials_ior":{
					"ior":1.4500000476837158
				}
			},
			"name":"Pasta-Material-new",
			"pbrMetallicRoughness":{
				"baseColorFactor":[
					0.9130933880805969,
					0.8069533705711365,
					0.15896107256412506,
					1
				],
				"metallicFactor":0
			}
		}
	],
	"meshes":[
		{
			"name":"Plane.002",
			"primitives":[
				{
					"attributes":{
						"COLOR_0":0,
						"POSITION":1,
						"TEXCOORD_0":2,
						"NORMAL":3
					},
					"indices":4,
					"material":0
				}
			]
		}
	],
	"accessors":[
		{
			"bufferView":0,
			"componentType":5123,
			"count":644,
			"normalized":true,
			"type":"VEC4"
		},
		{
			"bufferView":1,
			"componentType":5126,
			"count":644,
			"max":[
				1.0019983053207397,
				0.06647812575101852,
				0.7665535807609558
			],
			"min":[
				-0.9948491454124451,
				-0.07003895938396454,
				-0.810630202293396
			],
			"type":"VEC3"
		},
		{
			"bufferView":2,
			"componentType":5126,
			"count":644,
			"type":"VEC2"
		},
		{
			"bufferView":3,
			"componentType":5126,
			"count":644,
			"type":"VEC3"
		},
		{
			"bufferView":4,
			"componentType":5123,
			"count":948,
			"type":"SCALAR"
		},
		{
			"bufferView":5,
			"componentType":5126,
			"count":222,
			"max":[
				9.208333333333334
			],
			"min":[
				0
			],
			"type":"SCALAR"
		},
		{
			"bufferView":6,
			"componentType":5126,
			"count":222,
			"type":"VEC3"
		},
		{
			"bufferView":7,
			"componentType":5126,
			"count":222,
			"type":"VEC4"
		},
		{
			"bufferView":8,
			"componentType":5126,
			"count":222,
			"type":"VEC3"
		}
	],
	"bufferViews":[
		{
			"buffer":0,
			"byteLength":5152,
			"byteOffset":0,
			"target":34962
		},
		{
			"buffer":0,
			"byteLength":7728,
			"byteOffset":5152,
			"target":34962
		},
		{
			"buffer":0,
			"byteLength":5152,
			"byteOffset":12880,
			"target":34962
		},
		{
			"buffer":0,
			"byteLength":7728,
			"byteOffset":18032,
			"target":34962
		},
		{
			"buffer":0,
			"byteLength":1896,
			"byteOffset":25760,
			"target":34963
		},
		{
			"buffer":0,
			"byteLength":888,
			"byteOffset":27656
		},
		{
			"buffer":0,
			"byteLength":2664,
			"byteOffset":28544
		},
		{
			"buffer":0,
			"byteLength":3552,
			"byteOffset":31208
		},
		{
			"buffer":0,
			"byteLength":2664,
			"byteOffset":34760
		}
	],
	"buffers":[
		{
			"byteLength":37424,
			"uri":"data:application/octet-stream;base64,"
		}
	]
}
