{
	"asset":{
		"generator":"Khronos glTF Blender I/O v3.5.30",
		"version":"2.0"
	},
	"scene":0,
	"scenes":[
		{
			"extras":{
				"b_settings":1,
				"b_cubemap":1,
				"b_vr_controllers":0,
				"b_show_env_sky":1,
				"b_renderer":1,
				"b_aa":1,
				"b_colorManagement":1,
				"b_physicallyCorrectLights":1,
				"b_player":1,
				"b_raycast":1,
				"f_raycast_length":4.0,
				"f_raycast_interval":2000.0,
				"b_interactive":0,
				"b_export":1,
				"s_project_name":"Pastaland-v10",
				"export_path":"/Volumes/2793-Blender-3D/HFIAD/Pastaland/",
				"s_output":"exporting..."
			},
			"name":"Scene",
			"nodes":[
				0
			]
		}
	],
	"nodes":[
		{
			"mesh":0,
			"name":"Plane.012",
			"rotation":[
				0.7071068286895752,
				0,
				0,
				0.7071068286895752
			]
		}
	],
	"materials":[
		{
			"alphaMode":"BLEND",
			"doubleSided":true,
			"name":"Pasta-Material-new.001",
			"pbrMetallicRoughness":{
				"metallicFactor":0
			}
		}
	],
	"meshes":[
		{
			"name":"Plane.012",
			"primitives":[
				{
					"attributes":{
						"POSITION":0,
						"TEXCOORD_0":1,
						"NORMAL":2
					},
					"indices":3,
					"material":0
				}
			]
		}
	],
	"accessors":[
		{
			"bufferView":0,
			"componentType":5126,
			"count":644,
			"max":[
				2.0074942111968994,
				1.5357837677001953,
				0.14032244682312012
			],
			"min":[
				-1.9931708574295044,
				-1.624089241027832,
				-0.13318848609924316
			],
			"type":"VEC3"
		},
		{
			"bufferView":1,
			"componentType":5126,
			"count":644,
			"type":"VEC2"
		},
		{
			"bufferView":2,
			"componentType":5126,
			"count":644,
			"type":"VEC3"
		},
		{
			"bufferView":3,
			"componentType":5123,
			"count":948,
			"type":"SCALAR"
		}
	],
	"bufferViews":[
		{
			"buffer":0,
			"byteLength":7728,
			"byteOffset":0,
			"target":34962
		},
		{
			"buffer":0,
			"byteLength":5152,
			"byteOffset":7728,
			"target":34962
		},
		{
			"buffer":0,
			"byteLength":7728,
			"byteOffset":12880,
			"target":34962
		},
		{
			"buffer":0,
			"byteLength":1896,
			"byteOffset":20608,
			"target":34963
		}
	],
	"buffers":[
		{
			"byteLength":22504,
			"uri":"data:application/octet-stream;base64,"
		}
	]
}
