{
	"asset":{
		"generator":"Khronos glTF Blender I/O v3.5.30",
		"version":"2.0"
	},
	"scene":0,
	"scenes":[
		{
			"extras":{
				"b_settings":1,
				"b_cubemap":1,
				"b_vr_controllers":1,
				"b_show_env_sky":0,
				"b_renderer":1,
				"b_aa":0,
				"b_colorManagement":0,
				"b_physicallyCorrectLights":0,
				"b_player":1,
				"b_raycast":0,
				"f_raycast_length":4.0,
				"f_raycast_interval":2000.0,
				"b_interactive":0,
				"b_export":1,
				"s_project_name":"Pastaland-v14",
				"export_path":"/Volumes/2793-Blender-3D/HFIAD/Pastaland/",
				"s_output":"exporting...",
				"b_cast_shadows":1,
				"b_cubemap_background":1,
				"b_joystick":1
			},
			"name":"Scene",
			"nodes":[
				0
			]
		}
	],
	"nodes":[
		{
			"mesh":0,
			"name":"Rigatoni.002",
			"rotation":[
				0.7071068286895752,
				0,
				0,
				0.7071068286895752
			]
		}
	],
	"materials":[
		{
			"alphaMode":"BLEND",
			"doubleSided":true,
			"name":"Pasta-Material-new.001",
			"pbrMetallicRoughness":{
				"metallicFactor":0
			}
		}
	],
	"meshes":[
		{
			"name":"Rigatoni.002",
			"primitives":[
				{
					"attributes":{
						"POSITION":0,
						"TEXCOORD_0":1,
						"NORMAL":2
					},
					"indices":3,
					"material":0
				}
			]
		}
	],
	"accessors":[
		{
			"bufferView":0,
			"componentType":5126,
			"count":2160,
			"max":[
				0.871286928653717,
				1.575579047203064,
				0.835044801235199
			],
			"min":[
				-0.8712868094444275,
				-1.5755780935287476,
				-0.8350452184677124
			],
			"type":"VEC3"
		},
		{
			"bufferView":1,
			"componentType":5126,
			"count":2160,
			"type":"VEC2"
		},
		{
			"bufferView":2,
			"componentType":5126,
			"count":2160,
			"type":"VEC3"
		},
		{
			"bufferView":3,
			"componentType":5123,
			"count":4320,
			"type":"SCALAR"
		}
	],
	"bufferViews":[
		{
			"buffer":0,
			"byteLength":25920,
			"byteOffset":0,
			"target":34962
		},
		{
			"buffer":0,
			"byteLength":17280,
			"byteOffset":25920,
			"target":34962
		},
		{
			"buffer":0,
			"byteLength":25920,
			"byteOffset":43200,
			"target":34962
		},
		{
			"buffer":0,
			"byteLength":8640,
			"byteOffset":69120,
			"target":34963
		}
	],
	"buffers":[
		{
			"byteLength":77760,
			"uri":"data:application/octet-stream;base64,"
		}
	]
}
