{
	"asset":{
		"generator":"Khronos glTF Blender I/O v3.5.30",
		"version":"2.0"
	},
	"scene":0,
	"scenes":[
		{
			"extras":{
				"s_output":"exporting...",
				"b_export":1,
				"export_path":"/Volumes/HFIAD/Pastaland/",
				"s_project_name":"Pastaland-v20",
				"b_renderer":0,
				"b_settings":1,
				"b_joystick":0,
				"b_show_env_sky":0,
				"b_cubemap_background":0,
				"b_cast_shadows":0,
				"b_physicallyCorrectLights":1,
				"b_player":0,
				"b_raycast":1,
				"b_colorManagement":1,
				"b_aa":1,
				"b_interactive":0
			},
			"name":"Scene",
			"nodes":[
				0
			]
		}
	],
	"nodes":[
		{
			"mesh":0,
			"name":"Spoon",
			"rotation":[
				0.10570042580366135,
				0.9677082896232605,
				0.21047604084014893,
				0.08982173353433609
			],
			"scale":[
				2.0623397827148438,
				2.062340259552002,
				2.062340259552002
			]
		}
	],
	"animations":[
		{
			"channels":[
				{
					"sampler":0,
					"target":{
						"node":0,
						"path":"translation"
					}
				},
				{
					"sampler":1,
					"target":{
						"node":0,
						"path":"rotation"
					}
				},
				{
					"sampler":2,
					"target":{
						"node":0,
						"path":"scale"
					}
				}
			],
			"name":"Spoon",
			"samplers":[
				{
					"input":5,
					"interpolation":"LINEAR",
					"output":6
				},
				{
					"input":5,
					"interpolation":"LINEAR",
					"output":7
				},
				{
					"input":5,
					"interpolation":"LINEAR",
					"output":8
				}
			]
		}
	],
	"materials":[
		{
			"doubleSided":true,
			"emissiveFactor":[
				0.6382734179496765,
				0.6382734179496765,
				0.6382734179496765
			],
			"name":"Spoon",
			"pbrMetallicRoughness":{
				"baseColorFactor":[
					0.800000011920929,
					0.800000011920929,
					0.800000011920929,
					1
				],
				"roughnessFactor":0
			}
		}
	],
	"meshes":[
		{
			"name":"Plane.001",
			"primitives":[
				{
					"attributes":{
						"POSITION":0,
						"TEXCOORD_0":1,
						"NORMAL":2,
						"TANGENT":3
					},
					"indices":4,
					"material":0
				}
			]
		}
	],
	"accessors":[
		{
			"bufferView":0,
			"componentType":5126,
			"count":3607,
			"max":[
				0.9608716368675232,
				0.2798757255077362,
				5.077431678771973
			],
			"min":[
				-0.9612998962402344,
				-0.18571512401103973,
				-4.273021221160889
			],
			"type":"VEC3"
		},
		{
			"bufferView":1,
			"componentType":5126,
			"count":3607,
			"type":"VEC2"
		},
		{
			"bufferView":2,
			"componentType":5126,
			"count":3607,
			"type":"VEC3"
		},
		{
			"bufferView":3,
			"componentType":5126,
			"count":3607,
			"type":"VEC4"
		},
		{
			"bufferView":4,
			"componentType":5123,
			"count":18048,
			"type":"SCALAR"
		},
		{
			"bufferView":5,
			"componentType":5126,
			"count":222,
			"max":[
				9.208333333333334
			],
			"min":[
				0
			],
			"type":"SCALAR"
		},
		{
			"bufferView":6,
			"componentType":5126,
			"count":222,
			"type":"VEC3"
		},
		{
			"bufferView":7,
			"componentType":5126,
			"count":222,
			"type":"VEC4"
		},
		{
			"bufferView":8,
			"componentType":5126,
			"count":222,
			"type":"VEC3"
		}
	],
	"bufferViews":[
		{
			"buffer":0,
			"byteLength":43284,
			"byteOffset":0,
			"target":34962
		},
		{
			"buffer":0,
			"byteLength":28856,
			"byteOffset":43284,
			"target":34962
		},
		{
			"buffer":0,
			"byteLength":43284,
			"byteOffset":72140,
			"target":34962
		},
		{
			"buffer":0,
			"byteLength":57712,
			"byteOffset":115424,
			"target":34962
		},
		{
			"buffer":0,
			"byteLength":36096,
			"byteOffset":173136,
			"target":34963
		},
		{
			"buffer":0,
			"byteLength":888,
			"byteOffset":209232
		},
		{
			"buffer":0,
			"byteLength":2664,
			"byteOffset":210120
		},
		{
			"buffer":0,
			"byteLength":3552,
			"byteOffset":212784
		},
		{
			"buffer":0,
			"byteLength":2664,
			"byteOffset":216336
		}
	],
	"buffers":[
		{
			"byteLength":219000,
			"uri":"data:application/octet-stream;base64,"
		}
	]
}
