{
	"asset":{
		"generator":"Khronos glTF Blender I/O v3.5.30",
		"version":"2.0"
	},
	"scene":0,
	"scenes":[
		{
			"extras":{
				"b_settings":1,
				"b_cubemap":1,
				"b_vr_controllers":0,
				"b_show_env_sky":1,
				"b_renderer":1,
				"b_aa":1,
				"b_colorManagement":1,
				"b_physicallyCorrectLights":1,
				"b_player":1,
				"b_raycast":1,
				"f_raycast_length":4.0,
				"f_raycast_interval":2000.0,
				"b_interactive":0,
				"b_export":1,
				"s_project_name":"Pastaland-v10",
				"export_path":"/Volumes/2793-Blender-3D/HFIAD/Pastaland/",
				"s_output":"exporting..."
			},
			"name":"Scene",
			"nodes":[
				0
			]
		}
	],
	"nodes":[
		{
			"mesh":0,
			"name":"Text",
			"rotation":[
				0.7071068286895752,
				0,
				0,
				0.7071068286895752
			]
		}
	],
	"materials":[
		{
			"doubleSided":true,
			"name":"Material.003",
			"pbrMetallicRoughness":{
				"baseColorFactor":[
					0.8003550171852112,
					0.16684800386428833,
					0.04898399859666824,
					1
				],
				"metallicFactor":0,
				"roughnessFactor":0.5
			}
		}
	],
	"meshes":[
		{
			"name":"Text",
			"primitives":[
				{
					"attributes":{
						"POSITION":0,
						"TEXCOORD_0":1,
						"NORMAL":2,
						"TANGENT":3
					},
					"indices":4,
					"material":0
				}
			]
		}
	],
	"accessors":[
		{
			"bufferView":0,
			"componentType":5126,
			"count":4718,
			"max":[
				6.345399379730225,
				0.6319732666015625,
				1.840062141418457
			],
			"min":[
				-8.107566833496094,
				-0.6028575897216797,
				-1.9870314598083496
			],
			"type":"VEC3"
		},
		{
			"bufferView":1,
			"componentType":5126,
			"count":4718,
			"type":"VEC2"
		},
		{
			"bufferView":2,
			"componentType":5126,
			"count":4718,
			"type":"VEC3"
		},
		{
			"bufferView":3,
			"componentType":5126,
			"count":4718,
			"type":"VEC4"
		},
		{
			"bufferView":4,
			"componentType":5123,
			"count":18252,
			"type":"SCALAR"
		}
	],
	"bufferViews":[
		{
			"buffer":0,
			"byteLength":56616,
			"byteOffset":0,
			"target":34962
		},
		{
			"buffer":0,
			"byteLength":37744,
			"byteOffset":56616,
			"target":34962
		},
		{
			"buffer":0,
			"byteLength":56616,
			"byteOffset":94360,
			"target":34962
		},
		{
			"buffer":0,
			"byteLength":75488,
			"byteOffset":150976,
			"target":34962
		},
		{
			"buffer":0,
			"byteLength":36504,
			"byteOffset":226464,
			"target":34963
		}
	],
	"buffers":[
		{
			"byteLength":262968,
			"uri":"data:application/octet-stream;base64,"
		}
	]
}
