{
	"asset":{
		"generator":"Khronos glTF Blender I/O v3.5.30",
		"version":"2.0"
	},
	"scene":0,
	"scenes":[
		{
			"extras":{
				"s_output":"exporting...",
				"b_export":1,
				"b_interactive":1,
				"b_settings":0,
				"b_renderer":0,
				"b_player":1,
				"export_path":"/Users/fazlifazliu/Downloads/"
			},
			"name":"Scene",
			"nodes":[
				0
			]
		}
	],
	"nodes":[
		{
			"mesh":0,
			"name":"Text",
			"rotation":[
				0.06828153133392334,
				-0.7020631432533264,
				0.7064545154571533,
				0.05802572891116142
			],
			"scale":[
				1.1048829555511475,
				0.4152277112007141,
				1.104883074760437
			]
		}
	],
	"meshes":[
		{
			"name":"Text",
			"primitives":[
				{
					"attributes":{
						"POSITION":0,
						"TEXCOORD_0":1,
						"NORMAL":2,
						"TANGENT":3
					},
					"indices":4
				}
			]
		}
	],
	"accessors":[
		{
			"bufferView":0,
			"componentType":5126,
			"count":4717,
			"max":[
				2.8663766384124756,
				0.28999999165534973,
				0.8262242078781128
			],
			"min":[
				-3.662429094314575,
				-0.28999999165534973,
				-0.8938170671463013
			],
			"type":"VEC3"
		},
		{
			"bufferView":1,
			"componentType":5126,
			"count":4717,
			"type":"VEC2"
		},
		{
			"bufferView":2,
			"componentType":5126,
			"count":4717,
			"type":"VEC3"
		},
		{
			"bufferView":3,
			"componentType":5126,
			"count":4717,
			"type":"VEC4"
		},
		{
			"bufferView":4,
			"componentType":5123,
			"count":18252,
			"type":"SCALAR"
		}
	],
	"bufferViews":[
		{
			"buffer":0,
			"byteLength":56604,
			"byteOffset":0,
			"target":34962
		},
		{
			"buffer":0,
			"byteLength":37736,
			"byteOffset":56604,
			"target":34962
		},
		{
			"buffer":0,
			"byteLength":56604,
			"byteOffset":94340,
			"target":34962
		},
		{
			"buffer":0,
			"byteLength":75472,
			"byteOffset":150944,
			"target":34962
		},
		{
			"buffer":0,
			"byteLength":36504,
			"byteOffset":226416,
			"target":34963
		}
	],
	"buffers":[
		{
			"byteLength":262920,
			"uri":"data:application/octet-stream;base64,"
		}
	]
}
