{
	"asset":{
		"generator":"Khronos glTF Blender I/O v3.5.30",
		"version":"2.0"
	},
	"scene":0,
	"scenes":[
		{
			"extras":{
				"s_output":"exporting...",
				"b_export":1,
				"b_interactive":1,
				"b_settings":0,
				"b_renderer":0,
				"b_player":0,
				"export_path":"/Users/fazlifazliu/Downloads/",
				"s_project_name":"Pastaland V2"
			},
			"name":"Scene",
			"nodes":[
				0
			]
		}
	],
	"nodes":[
		{
			"mesh":0,
			"name":"Text",
			"rotation":[
				0.7740793228149414,
				0.0005544375744648278,
				-0.0004517293709795922,
				0.633088231086731
			],
			"scale":[
				1.1048829555511475,
				0.4152277708053589,
				1.104882836341858
			]
		}
	],
	"materials":[
		{
			"doubleSided":true,
			"name":"Material.003",
			"pbrMetallicRoughness":{
				"baseColorFactor":[
					0.8000000715255737,
					0.010392083786427975,
					0.014433730393648148,
					1
				],
				"metallicFactor":0,
				"roughnessFactor":0.5
			}
		}
	],
	"meshes":[
		{
			"name":"Text",
			"primitives":[
				{
					"attributes":{
						"POSITION":0,
						"TEXCOORD_0":1,
						"NORMAL":2,
						"TANGENT":3
					},
					"indices":4,
					"material":0
				}
			]
		}
	],
	"accessors":[
		{
			"bufferView":0,
			"componentType":5126,
			"count":4717,
			"max":[
				2.866377353668213,
				0.28999999165534973,
				0.8262242078781128
			],
			"min":[
				-3.662428379058838,
				-0.28999999165534973,
				-0.8938170671463013
			],
			"type":"VEC3"
		},
		{
			"bufferView":1,
			"componentType":5126,
			"count":4717,
			"type":"VEC2"
		},
		{
			"bufferView":2,
			"componentType":5126,
			"count":4717,
			"type":"VEC3"
		},
		{
			"bufferView":3,
			"componentType":5126,
			"count":4717,
			"type":"VEC4"
		},
		{
			"bufferView":4,
			"componentType":5123,
			"count":18252,
			"type":"SCALAR"
		}
	],
	"bufferViews":[
		{
			"buffer":0,
			"byteLength":56604,
			"byteOffset":0,
			"target":34962
		},
		{
			"buffer":0,
			"byteLength":37736,
			"byteOffset":56604,
			"target":34962
		},
		{
			"buffer":0,
			"byteLength":56604,
			"byteOffset":94340,
			"target":34962
		},
		{
			"buffer":0,
			"byteLength":75472,
			"byteOffset":150944,
			"target":34962
		},
		{
			"buffer":0,
			"byteLength":36504,
			"byteOffset":226416,
			"target":34963
		}
	],
	"buffers":[
		{
			"byteLength":262920,
			"uri":"data:application/octet-stream;base64,"
		}
	]
}
