{
	"asset":{
		"generator":"Khronos glTF Blender I/O v3.5.30",
		"version":"2.0"
	},
	"extensionsUsed":[
		"KHR_materials_emissive_strength"
	],
	"scene":0,
	"scenes":[
		{
			"extras":{
				"s_output":"exporting...",
				"b_export":1,
				"export_path":"/Volumes/HFIAD/Pastaland/",
				"s_project_name":"Pastaland-v19",
				"b_renderer":0,
				"b_settings":1,
				"b_joystick":0,
				"b_show_env_sky":0,
				"b_cubemap_background":0,
				"b_cast_shadows":0,
				"b_physicallyCorrectLights":1,
				"b_player":0,
				"b_raycast":1,
				"b_colorManagement":1,
				"b_aa":1,
				"b_interactive":0
			},
			"name":"Scene",
			"nodes":[
				0
			]
		}
	],
	"nodes":[
		{
			"mesh":0,
			"name":"Text",
			"rotation":[
				0.7740366458892822,
				-0.006472028326243162,
				0.008139542303979397,
				0.6330553889274597
			],
			"scale":[
				2.213622808456421,
				0.8319048881530762,
				2.213622808456421
			]
		}
	],
	"animations":[
		{
			"channels":[
				{
					"sampler":0,
					"target":{
						"node":0,
						"path":"translation"
					}
				},
				{
					"sampler":1,
					"target":{
						"node":0,
						"path":"rotation"
					}
				},
				{
					"sampler":2,
					"target":{
						"node":0,
						"path":"scale"
					}
				}
			],
			"name":"Text",
			"samplers":[
				{
					"input":5,
					"interpolation":"LINEAR",
					"output":6
				},
				{
					"input":5,
					"interpolation":"LINEAR",
					"output":7
				},
				{
					"input":5,
					"interpolation":"LINEAR",
					"output":8
				}
			]
		}
	],
	"materials":[
		{
			"doubleSided":true,
			"emissiveFactor":[
				1,
				0.634032130241394,
				0.27362260222435
			],
			"extensions":{
				"KHR_materials_emissive_strength":{
					"emissiveStrength":20.799999237060547
				}
			},
			"name":"Material.003",
			"pbrMetallicRoughness":{
				"baseColorFactor":[
					0.8003553152084351,
					0.1668476164340973,
					0.04898359626531601,
					1
				],
				"metallicFactor":0,
				"roughnessFactor":0.5
			}
		}
	],
	"meshes":[
		{
			"name":"Text",
			"primitives":[
				{
					"attributes":{
						"POSITION":0,
						"TEXCOORD_0":1,
						"NORMAL":2,
						"TANGENT":3
					},
					"indices":4,
					"material":0
				}
			]
		}
	],
	"accessors":[
		{
			"bufferView":0,
			"componentType":5126,
			"count":4716,
			"max":[
				2.866377353668213,
				0.28999999165534973,
				0.8262242078781128
			],
			"min":[
				-3.662428379058838,
				-0.28999999165534973,
				-0.8938170671463013
			],
			"type":"VEC3"
		},
		{
			"bufferView":1,
			"componentType":5126,
			"count":4716,
			"type":"VEC2"
		},
		{
			"bufferView":2,
			"componentType":5126,
			"count":4716,
			"type":"VEC3"
		},
		{
			"bufferView":3,
			"componentType":5126,
			"count":4716,
			"type":"VEC4"
		},
		{
			"bufferView":4,
			"componentType":5123,
			"count":18252,
			"type":"SCALAR"
		},
		{
			"bufferView":5,
			"componentType":5126,
			"count":222,
			"max":[
				9.208333333333334
			],
			"min":[
				0
			],
			"type":"SCALAR"
		},
		{
			"bufferView":6,
			"componentType":5126,
			"count":222,
			"type":"VEC3"
		},
		{
			"bufferView":7,
			"componentType":5126,
			"count":222,
			"type":"VEC4"
		},
		{
			"bufferView":8,
			"componentType":5126,
			"count":222,
			"type":"VEC3"
		}
	],
	"bufferViews":[
		{
			"buffer":0,
			"byteLength":56592,
			"byteOffset":0,
			"target":34962
		},
		{
			"buffer":0,
			"byteLength":37728,
			"byteOffset":56592,
			"target":34962
		},
		{
			"buffer":0,
			"byteLength":56592,
			"byteOffset":94320,
			"target":34962
		},
		{
			"buffer":0,
			"byteLength":75456,
			"byteOffset":150912,
			"target":34962
		},
		{
			"buffer":0,
			"byteLength":36504,
			"byteOffset":226368,
			"target":34963
		},
		{
			"buffer":0,
			"byteLength":888,
			"byteOffset":262872
		},
		{
			"buffer":0,
			"byteLength":2664,
			"byteOffset":263760
		},
		{
			"buffer":0,
			"byteLength":3552,
			"byteOffset":266424
		},
		{
			"buffer":0,
			"byteLength":2664,
			"byteOffset":269976
		}
	],
	"buffers":[
		{
			"byteLength":272640,
			"uri":"data:application/octet-stream;base64,"
		}
	]
}
