{
	"asset":{
		"generator":"Khronos glTF Blender I/O v3.5.30",
		"version":"2.0"
	},
	"extensionsUsed":[
		"KHR_materials_specular",
		"KHR_materials_ior"
	],
	"scene":0,
	"scenes":[
		{
			"extras":{
				"s_output":"exporting...",
				"b_export":1,
				"export_path":"/Volumes/HFIAD/Pastaland/",
				"s_project_name":"aframe-prj"
			},
			"name":"Scene",
			"nodes":[
				0
			]
		}
	],
	"nodes":[
		{
			"mesh":0,
			"name":"Torus.004",
			"rotation":[
				0.1307206004858017,
				-0.927544891834259,
				0.3002573549747467,
				0.18005037307739258
			],
			"scale":[
				0.8779658675193787,
				0.8779661655426025,
				0.8779661655426025
			]
		}
	],
	"animations":[
		{
			"channels":[
				{
					"sampler":0,
					"target":{
						"node":0,
						"path":"translation"
					}
				},
				{
					"sampler":1,
					"target":{
						"node":0,
						"path":"rotation"
					}
				},
				{
					"sampler":2,
					"target":{
						"node":0,
						"path":"scale"
					}
				}
			],
			"name":"Torus.004",
			"samplers":[
				{
					"input":5,
					"interpolation":"LINEAR",
					"output":6
				},
				{
					"input":5,
					"interpolation":"LINEAR",
					"output":7
				},
				{
					"input":5,
					"interpolation":"LINEAR",
					"output":8
				}
			]
		}
	],
	"materials":[
		{
			"doubleSided":true,
			"extensions":{
				"KHR_materials_specular":{
					"specularColorFactor":[
						0.474271529955476,
						0.474271529955476,
						0.474271529955476
					]
				},
				"KHR_materials_ior":{
					"ior":1.4500000476837158
				}
			},
			"name":"Pasta-Material-new",
			"pbrMetallicRoughness":{
				"baseColorFactor":[
					0.9130933880805969,
					0.8069533705711365,
					0.15896107256412506,
					1
				],
				"metallicFactor":0
			}
		}
	],
	"meshes":[
		{
			"name":"Torus.004",
			"primitives":[
				{
					"attributes":{
						"POSITION":0,
						"TEXCOORD_0":1,
						"NORMAL":2,
						"TANGENT":3
					},
					"indices":4,
					"material":0
				}
			]
		}
	],
	"accessors":[
		{
			"bufferView":0,
			"componentType":5126,
			"count":221,
			"max":[
				0.45081230998039246,
				0.25,
				1.0284053087234497
			],
			"min":[
				-0.4241878092288971,
				-0.25,
				-1.0458182096481323
			],
			"type":"VEC3"
		},
		{
			"bufferView":1,
			"componentType":5126,
			"count":221,
			"type":"VEC2"
		},
		{
			"bufferView":2,
			"componentType":5126,
			"count":221,
			"type":"VEC3"
		},
		{
			"bufferView":3,
			"componentType":5126,
			"count":221,
			"type":"VEC4"
		},
		{
			"bufferView":4,
			"componentType":5123,
			"count":1080,
			"type":"SCALAR"
		},
		{
			"bufferView":5,
			"componentType":5126,
			"count":221,
			"max":[
				9.208333333333334
			],
			"min":[
				0.041666666666666664
			],
			"type":"SCALAR"
		},
		{
			"bufferView":6,
			"componentType":5126,
			"count":221,
			"type":"VEC3"
		},
		{
			"bufferView":7,
			"componentType":5126,
			"count":221,
			"type":"VEC4"
		},
		{
			"bufferView":8,
			"componentType":5126,
			"count":221,
			"type":"VEC3"
		}
	],
	"bufferViews":[
		{
			"buffer":0,
			"byteLength":2652,
			"byteOffset":0,
			"target":34962
		},
		{
			"buffer":0,
			"byteLength":1768,
			"byteOffset":2652,
			"target":34962
		},
		{
			"buffer":0,
			"byteLength":2652,
			"byteOffset":4420,
			"target":34962
		},
		{
			"buffer":0,
			"byteLength":3536,
			"byteOffset":7072,
			"target":34962
		},
		{
			"buffer":0,
			"byteLength":2160,
			"byteOffset":10608,
			"target":34963
		},
		{
			"buffer":0,
			"byteLength":884,
			"byteOffset":12768
		},
		{
			"buffer":0,
			"byteLength":2652,
			"byteOffset":13652
		},
		{
			"buffer":0,
			"byteLength":3536,
			"byteOffset":16304
		},
		{
			"buffer":0,
			"byteLength":2652,
			"byteOffset":19840
		}
	],
	"buffers":[
		{
			"byteLength":22492,
			"uri":"data:application/octet-stream;base64,"
		}
	]
}
