{
	"asset":{
		"generator":"Khronos glTF Blender I/O v3.5.30",
		"version":"2.0"
	},
	"scene":0,
	"scenes":[
		{
			"extras":{
				"b_settings":1,
				"b_cubemap":1,
				"b_vr_controllers":0,
				"b_show_env_sky":1,
				"b_renderer":1,
				"b_aa":1,
				"b_colorManagement":1,
				"b_physicallyCorrectLights":1,
				"b_player":1,
				"b_raycast":1,
				"f_raycast_length":4.0,
				"f_raycast_interval":2000.0,
				"b_interactive":0,
				"b_export":1,
				"s_project_name":"Pastaland-v10",
				"export_path":"/Volumes/2793-Blender-3D/HFIAD/Pastaland/",
				"s_output":"exporting..."
			},
			"name":"Scene",
			"nodes":[
				0
			]
		}
	],
	"nodes":[
		{
			"mesh":0,
			"name":"Torus",
			"rotation":[
				0.7071068286895752,
				0,
				0,
				0.7071068286895752
			]
		}
	],
	"materials":[
		{
			"alphaMode":"BLEND",
			"doubleSided":true,
			"name":"Pasta-Material-new.001",
			"pbrMetallicRoughness":{
				"metallicFactor":0
			}
		}
	],
	"meshes":[
		{
			"name":"Torus",
			"primitives":[
				{
					"attributes":{
						"POSITION":0,
						"TEXCOORD_0":1,
						"NORMAL":2,
						"TANGENT":3
					},
					"indices":4,
					"material":0
				}
			]
		}
	],
	"accessors":[
		{
			"bufferView":0,
			"componentType":5126,
			"count":221,
			"max":[
				0.5831785202026367,
				0.8121576309204102,
				0.5929999351501465
			],
			"min":[
				-0.4087066650390625,
				-0.6793723106384277,
				-0.43007707595825195
			],
			"type":"VEC3"
		},
		{
			"bufferView":1,
			"componentType":5126,
			"count":221,
			"type":"VEC2"
		},
		{
			"bufferView":2,
			"componentType":5126,
			"count":221,
			"type":"VEC3"
		},
		{
			"bufferView":3,
			"componentType":5126,
			"count":221,
			"type":"VEC4"
		},
		{
			"bufferView":4,
			"componentType":5123,
			"count":1080,
			"type":"SCALAR"
		}
	],
	"bufferViews":[
		{
			"buffer":0,
			"byteLength":2652,
			"byteOffset":0,
			"target":34962
		},
		{
			"buffer":0,
			"byteLength":1768,
			"byteOffset":2652,
			"target":34962
		},
		{
			"buffer":0,
			"byteLength":2652,
			"byteOffset":4420,
			"target":34962
		},
		{
			"buffer":0,
			"byteLength":3536,
			"byteOffset":7072,
			"target":34962
		},
		{
			"buffer":0,
			"byteLength":2160,
			"byteOffset":10608,
			"target":34963
		}
	],
	"buffers":[
		{
			"byteLength":12768,
			"uri":"data:application/octet-stream;base64,"
		}
	]
}
