{
	"asset":{
		"generator":"Khronos glTF Blender I/O v3.5.30",
		"version":"2.0"
	},
	"extensionsUsed":[
		"KHR_materials_specular",
		"KHR_materials_ior"
	],
	"scene":0,
	"scenes":[
		{
			"extras":{
				"s_output":"exporting...",
				"b_export":1,
				"b_interactive":0,
				"b_settings":1,
				"b_renderer":0,
				"b_player":0,
				"export_path":"/Users/fazlifazliu/Downloads/",
				"s_project_name":"Pastaland V6",
				"b_cast_shadows":0,
				"b_cubemap_background":1,
				"b_show_env_sky":1
			},
			"name":"Scene",
			"nodes":[
				0
			]
		}
	],
	"nodes":[
		{
			"mesh":0,
			"name":"Fusili.006",
			"rotation":[
				-0.07465304434299469,
				0.41428881883621216,
				-0.5076690316200256,
				0.7517074346542358
			],
			"scale":[
				2.003490686416626,
				2.003490686416626,
				2.003490686416626
			]
		}
	],
	"materials":[
		{
			"doubleSided":true,
			"extensions":{
				"KHR_materials_specular":{
					"specularColorFactor":[
						0.474271529955476,
						0.474271529955476,
						0.474271529955476
					]
				},
				"KHR_materials_ior":{
					"ior":1.4500000476837158
				}
			},
			"name":"Pasta.001",
			"pbrMetallicRoughness":{
				"baseColorFactor":[
					0.9130933880805969,
					0.8069533705711365,
					0.15896107256412506,
					1
				],
				"metallicFactor":0,
				"roughnessFactor":0.699999988079071
			}
		}
	],
	"meshes":[
		{
			"name":"Cube.003",
			"primitives":[
				{
					"attributes":{
						"POSITION":0,
						"NORMAL":1
					},
					"indices":2,
					"material":0
				}
			]
		}
	],
	"accessors":[
		{
			"bufferView":0,
			"componentType":5126,
			"count":19074,
			"max":[
				0.23727834224700928,
				0.8263500332832336,
				0.24146676063537598
			],
			"min":[
				-0.23559445142745972,
				-0.7736616730690002,
				-0.22995977103710175
			],
			"type":"VEC3"
		},
		{
			"bufferView":1,
			"componentType":5126,
			"count":19074,
			"type":"VEC3"
		},
		{
			"bufferView":2,
			"componentType":5123,
			"count":114432,
			"type":"SCALAR"
		}
	],
	"bufferViews":[
		{
			"buffer":0,
			"byteLength":228888,
			"byteOffset":0,
			"target":34962
		},
		{
			"buffer":0,
			"byteLength":228888,
			"byteOffset":228888,
			"target":34962
		},
		{
			"buffer":0,
			"byteLength":228864,
			"byteOffset":457776,
			"target":34963
		}
	],
	"buffers":[
		{
			"byteLength":686640,
			"uri":"data:application/octet-stream;base64,"
		}
	]
}
