{
	"asset":{
		"generator":"Khronos glTF Blender I/O v3.5.30",
		"version":"2.0"
	},
	"extensionsUsed":[
		"KHR_materials_specular",
		"KHR_materials_ior"
	],
	"scene":0,
	"scenes":[
		{
			"extras":{
				"s_output":"exporting...",
				"b_export":1,
				"b_interactive":0,
				"b_settings":1,
				"b_renderer":0,
				"b_player":0,
				"export_path":"/Users/fazlifazliu/Downloads/",
				"s_project_name":"Pastaland V6",
				"b_cast_shadows":0,
				"b_cubemap_background":1,
				"b_show_env_sky":1
			},
			"name":"Scene",
			"nodes":[
				0
			]
		}
	],
	"nodes":[
		{
			"mesh":0,
			"name":"Torus.001",
			"rotation":[
				-0.8660063743591309,
				0.2515392303466797,
				0.12681086361408234,
				0.41313454508781433
			],
			"scale":[
				0.8779661059379578,
				0.8779659867286682,
				0.8779663443565369
			]
		}
	],
	"materials":[
		{
			"doubleSided":true,
			"extensions":{
				"KHR_materials_specular":{
					"specularColorFactor":[
						0.474271529955476,
						0.474271529955476,
						0.474271529955476
					]
				},
				"KHR_materials_ior":{
					"ior":1.4500000476837158
				}
			},
			"name":"Material.001",
			"pbrMetallicRoughness":{
				"baseColorFactor":[
					0.9130929708480835,
					0.8069533705711365,
					0.15896107256412506,
					1
				],
				"metallicFactor":0,
				"roughnessFactor":0.699999988079071
			}
		}
	],
	"meshes":[
		{
			"name":"Torus.001",
			"primitives":[
				{
					"attributes":{
						"POSITION":0,
						"TEXCOORD_0":1,
						"NORMAL":2,
						"TANGENT":3
					},
					"indices":4,
					"material":0
				}
			]
		}
	],
	"accessors":[
		{
			"bufferView":0,
			"componentType":5126,
			"count":221,
			"max":[
				0.45081230998039246,
				0.25,
				1.0284053087234497
			],
			"min":[
				-0.4241878092288971,
				-0.25,
				-1.0458182096481323
			],
			"type":"VEC3"
		},
		{
			"bufferView":1,
			"componentType":5126,
			"count":221,
			"type":"VEC2"
		},
		{
			"bufferView":2,
			"componentType":5126,
			"count":221,
			"type":"VEC3"
		},
		{
			"bufferView":3,
			"componentType":5126,
			"count":221,
			"type":"VEC4"
		},
		{
			"bufferView":4,
			"componentType":5123,
			"count":1080,
			"type":"SCALAR"
		}
	],
	"bufferViews":[
		{
			"buffer":0,
			"byteLength":2652,
			"byteOffset":0,
			"target":34962
		},
		{
			"buffer":0,
			"byteLength":1768,
			"byteOffset":2652,
			"target":34962
		},
		{
			"buffer":0,
			"byteLength":2652,
			"byteOffset":4420,
			"target":34962
		},
		{
			"buffer":0,
			"byteLength":3536,
			"byteOffset":7072,
			"target":34962
		},
		{
			"buffer":0,
			"byteLength":2160,
			"byteOffset":10608,
			"target":34963
		}
	],
	"buffers":[
		{
			"byteLength":12768,
			"uri":"data:application/octet-stream;base64,"
		}
	]
}
